<mxfile host="app.diagrams.net" modified="2021-12-08T09:09:15.348Z" agent="5.0 (Windows NT 10.0; Win64; x64) AppleWebKit/537.36 (KHTML, like Gecko) Chrome/96.0.4664.93 Safari/537.36" etag="7kAhOCc8se2Cg46FC-dk" version="14.1.1" type="github">
  <diagram id="7Ey8rZzBiKPthKXWuByZ" name="第 1 页">
    <mxGraphModel dx="2062" dy="1058" grid="1" gridSize="10" guides="1" tooltips="1" connect="1" arrows="1" fold="1" page="1" pageScale="1" pageWidth="827" pageHeight="1169" math="0" shadow="0">
      <root>
        <mxCell id="0" />
        <mxCell id="1" parent="0" />
        <mxCell id="wWv2a2dEpYThvW-Z-flm-1" value="Test" style="rounded=0;whiteSpace=wrap;html=1;" vertex="1" parent="1">
          <mxGeometry x="320" y="320" width="120" height="60" as="geometry" />
        </mxCell>
      </root>
    </mxGraphModel>
  </diagram>
</mxfile>
